<?xml version="1.0" encoding="UTF-8"?>
<svg id="Layer_2" data-name="Layer 2" xmlns="http://www.w3.org/2000/svg" viewBox="0 0 18.59 20.15">
  <defs>
    <style>
      .cls-1 {
        fill: #231f20;
        stroke-width: 0px;
      }
    </style>
  </defs>
  <g id="Layer_1-2" data-name="Layer 1">
    <path class="cls-1" d="m12.9,9.47c1.91.45,3.25.99,4.03,1.62,1.11.9,1.66,2.07,1.66,3.51,0,1.52-.61,2.77-1.83,3.76-1.5,1.2-3.67,1.8-6.52,1.8H0v-.55c.93,0,1.56-.09,1.89-.26s.56-.4.7-.68.2-.96.2-2.05V3.54c0-1.09-.07-1.78-.2-2.06s-.37-.51-.71-.68-.97-.25-1.89-.25v-.55h9.66c2.31,0,3.94.21,4.9.62s1.72,1.03,2.27,1.84.83,1.69.83,2.61c0,.97-.35,1.84-1.05,2.59s-1.94,1.36-3.71,1.81Zm-5.41.76v7.21c-.01.53.12.94.39,1.21s.68.41,1.21.41c.79,0,1.52-.18,2.19-.53s1.18-.86,1.54-1.53.53-1.41.53-2.24c0-.94-.22-1.79-.65-2.53s-1.04-1.27-1.8-1.57-1.9-.44-3.42-.43Zm0-1.16c1.41,0,2.44-.16,3.11-.48s1.18-.76,1.54-1.34.53-1.31.53-2.2-.18-1.62-.53-2.19-.85-1-1.51-1.3-1.7-.44-3.15-.43v7.93Z"/>
  </g>
</svg>