<?xml version="1.0" encoding="UTF-8"?>
<svg id="Layer_2" data-name="Layer 2" xmlns="http://www.w3.org/2000/svg" viewBox="0 0 13.35 14.92">
  <defs>
    <style>
      .cls-1 {
        fill: #231f20;
        stroke-width: 0px;
      }
    </style>
  </defs>
  <g id="Layer_1-2" data-name="Layer 1">
    <path class="cls-1" d="m7.23,9.02v-1.69h6.11s0,5.34,0,5.34c-.94.75-1.91,1.31-2.9,1.69s-2.02.57-3.07.57c-1.42,0-2.7-.3-3.86-.91s-2.03-1.48-2.62-2.63-.89-2.43-.89-3.85.29-2.71.88-3.93S2.31,1.48,3.42.89s2.37-.89,3.81-.89c1.04,0,1.99.17,2.83.51s1.5.81,1.98,1.41.84,1.39,1.09,2.36l-1.72.47c-.22-.73-.49-1.31-.81-1.73s-.78-.76-1.38-1.01-1.26-.38-1.99-.38c-.87,0-1.63.13-2.26.4s-1.15.62-1.54,1.05-.69.91-.91,1.43c-.37.89-.55,1.86-.55,2.9,0,1.29.22,2.36.66,3.23s1.09,1.51,1.93,1.93,1.75.63,2.7.63c.83,0,1.63-.16,2.42-.48s1.38-.66,1.79-1.02v-2.69h-4.24Z"/>
  </g>
</svg>