<?xml version="1.0" encoding="UTF-8"?>
<svg id="Layer_2" data-name="Layer 2" xmlns="http://www.w3.org/2000/svg" viewBox="0 0 18.23 18.62">
  <defs>
    <style>
      .cls-1 {
        stroke: #231f20;
        stroke-miterlimit: 10;
        stroke-width: 1.5px;
      }

      .cls-1, .cls-2 {
        fill: #231f20;
      }

      .cls-2 {
        stroke-width: 0px;
      }
    </style>
  </defs>
  <g id="Layer_1-2" data-name="Layer 1">
    <path class="cls-2" d="m13.01,0h1.98v8.63c0,1.5-.17,2.69-.51,3.58s-.95,1.6-1.84,2.15-2.05.83-3.49.83-2.54-.24-3.43-.72-1.52-1.18-1.91-2.09-.57-2.16-.57-3.74V0h1.98v8.62c0,1.3.12,2.25.36,2.87s.66,1.09,1.24,1.42,1.31.5,2.15.5c1.45,0,2.49-.33,3.11-.99s.93-1.93.93-3.8V0Z"/>
    <line class="cls-1" y1="17.87" x2="18.23" y2="17.87"/>
  </g>
</svg>