<svg width="31" height="31" viewBox="0 0 31 31" fill="none" xmlns="http://www.w3.org/2000/svg">
<path d="M17.4783 12.3736L12.4321 17.4198C12.3139 17.5371 12.22 17.6766 12.156 17.8303C12.0919 17.9841 12.059 18.1489 12.059 18.3155C12.059 18.482 12.0919 18.6469 12.156 18.8007C12.22 18.9544 12.3139 19.0939 12.4321 19.2112C12.5494 19.3294 12.6889 19.4233 12.8427 19.4873C12.9964 19.5514 13.1613 19.5844 13.3278 19.5844C13.4944 19.5844 13.6593 19.5514 13.813 19.4873C13.9667 19.4233 14.1063 19.3294 14.2235 19.2112L19.2697 14.165C19.5073 13.9274 19.6408 13.6052 19.6408 13.2693C19.6408 12.9333 19.5073 12.6111 19.2697 12.3736C19.0322 12.136 18.71 12.0026 18.374 12.0026C18.0381 12.0026 17.7159 12.136 17.4783 12.3736Z" fill="#231F20"/>
<path d="M16.2042 22.6048L14.5894 24.2069C13.6829 25.141 12.4642 25.7088 11.1659 25.8018C9.86757 25.8949 8.58041 25.5068 7.54993 24.7116C7.00528 24.2628 6.56083 23.7047 6.24528 23.0734C5.92973 22.4422 5.75011 21.7517 5.71801 21.0467C5.68591 20.3417 5.80205 19.6378 6.05892 18.9805C6.3158 18.3231 6.7077 17.727 7.20931 17.2306L9.00071 15.4265C9.11896 15.3093 9.21281 15.1697 9.27685 15.016C9.3409 14.8623 9.37388 14.6974 9.37388 14.5308C9.37388 14.3643 9.3409 14.1994 9.27685 14.0457C9.21281 13.8919 9.11896 13.7524 9.00071 13.6351C8.88343 13.5169 8.74391 13.423 8.59017 13.359C8.43644 13.2949 8.27155 13.262 8.10501 13.262C7.93847 13.262 7.77358 13.2949 7.61985 13.359C7.46611 13.423 7.32659 13.5169 7.20931 13.6351L5.60714 15.2499C4.25747 16.5569 3.42791 18.3092 3.27246 20.1815C3.11702 22.0539 3.64625 23.919 4.7619 25.4306C5.42406 26.2897 6.26143 26.998 7.21838 27.5085C8.17532 28.019 9.22995 28.3201 10.3122 28.3916C11.3944 28.4632 12.4795 28.3037 13.4954 27.9237C14.5113 27.5437 15.4346 26.9519 16.2042 26.1876L17.9956 24.3962C18.2331 24.1586 18.3666 23.8364 18.3666 23.5005C18.3666 23.1645 18.2331 22.8423 17.9956 22.6048C17.758 22.3672 17.4358 22.2338 17.0999 22.2338C16.7639 22.2338 16.4417 22.3672 16.2042 22.6048Z" fill="#231F20"/>
<path d="M25.5144 4.71595C23.9923 3.58871 22.112 3.05409 20.2245 3.21196C18.3371 3.36982 16.5716 4.20938 15.258 5.5738L13.8955 6.96151C13.7398 7.07472 13.6096 7.21937 13.5133 7.38609C13.417 7.55282 13.3568 7.7379 13.3366 7.92937C13.3164 8.12083 13.3366 8.31441 13.3959 8.49756C13.4553 8.68072 13.5524 8.84937 13.681 8.99261C13.7983 9.11085 13.9378 9.20471 14.0916 9.26875C14.2453 9.3328 14.4102 9.36578 14.5767 9.36578C14.7433 9.36578 14.9082 9.3328 15.0619 9.26875C15.2156 9.20471 15.3552 9.11085 15.4724 8.99261L17.1125 7.33998C18.014 6.40178 19.2312 5.83095 20.5289 5.73775C21.8267 5.64456 23.113 6.0356 24.1393 6.83536C24.688 7.28422 25.136 7.84366 25.4541 8.47722C25.7721 9.11078 25.9531 9.80425 25.9852 10.5124C26.0174 11.2206 25.8999 11.9276 25.6406 12.5874C25.3812 13.2472 24.9857 13.8449 24.4799 14.3416L22.6885 16.1456C22.5703 16.2629 22.4764 16.4024 22.4124 16.5562C22.3483 16.7099 22.3154 16.8748 22.3154 17.0413C22.3154 17.2079 22.3483 17.3727 22.4124 17.5265C22.4764 17.6802 22.5703 17.8197 22.6885 17.937C22.8058 18.0553 22.9453 18.1491 23.0991 18.2132C23.2528 18.2772 23.4177 18.3102 23.5842 18.3102C23.7508 18.3102 23.9157 18.2772 24.0694 18.2132C24.2231 18.1491 24.3627 18.0553 24.4799 17.937L26.2713 16.1456C27.0335 15.3762 27.6235 14.4536 28.0023 13.439C28.381 12.4244 28.5399 11.3409 28.4683 10.2602C28.3967 9.17958 28.0964 8.12648 27.5871 7.17066C27.0779 6.21485 26.3714 5.37814 25.5144 4.71595Z" fill="#231F20"/>
</svg>
