<svg width="30" height="30" viewBox="0 0 30 30" fill="none" xmlns="http://www.w3.org/2000/svg">
<path d="M23.3347 13.5096H15.9659V6.14071C15.9659 5.81498 15.8365 5.5026 15.6061 5.27228C15.3758 5.04196 15.0634 4.91257 14.7377 4.91257C14.412 4.91257 14.0996 5.04196 13.8693 5.27228C13.639 5.5026 13.5096 5.81498 13.5096 6.14071V13.5096H6.14074C5.81502 13.5096 5.50263 13.6389 5.27231 13.8693C5.04199 14.0996 4.9126 14.412 4.9126 14.7377C4.9126 15.0634 5.04199 15.3758 5.27231 15.6061C5.50263 15.8364 5.81502 15.9658 6.14074 15.9658H13.5096V23.3347C13.5096 23.6604 13.639 23.9728 13.8693 24.2031C14.0996 24.4334 14.412 24.5628 14.7377 24.5628C15.0634 24.5628 15.3758 24.4334 15.6061 24.2031C15.8365 23.9728 15.9659 23.6604 15.9659 23.3347V15.9658H23.3347C23.6604 15.9658 23.9728 15.8364 24.2031 15.6061C24.4335 15.3758 24.5628 15.0634 24.5628 14.7377C24.5628 14.412 24.4335 14.0996 24.2031 13.8693C23.9728 13.6389 23.6604 13.5096 23.3347 13.5096Z" fill="#231F20"/>
</svg>
