<?xml version="1.0" encoding="UTF-8"?>
<svg id="Layer_2" data-name="Layer 2" xmlns="http://www.w3.org/2000/svg" viewBox="0 0 128 64">
  <defs>
    <style>
      .cls-1 {
        stroke: #fff;
        stroke-miterlimit: 10;
        stroke-width: .5px;
      }

      .cls-1, .cls-2 {
        fill: #fff;
      }

      .cls-3 {
        fill: #231f20;
      }

      .cls-3, .cls-2 {
        stroke-width: 0px;
      }
    </style>
  </defs>
  <g id="Main_Layer" data-name="Main Layer">
    <g>
      <g>
        <rect class="cls-3" x=".25" y=".25" width="127.5" height="63.5"/>
        <path class="cls-2" d="m127.5.5v63H.5V.5h127m.5-.5H0v64h128V0h0Z"/>
      </g>
      <g>
        <g>
          <path class="cls-1" d="m38.58,26.29h-2.31v-7.83c0-.59-.03-1.16-.08-1.71s-.17-.99-.34-1.32c-.19-.35-.46-.62-.81-.8s-.86-.27-1.53-.27-1.3.16-1.94.49-1.3.74-1.94,1.24c.02.19.05.41.06.66s.02.5.02.74v8.8h-2.31v-7.83c0-.61-.03-1.18-.08-1.73s-.17-.98-.34-1.31c-.19-.35-.46-.62-.81-.79s-.86-.26-1.53-.26-1.27.16-1.9.47-1.27.71-1.9,1.19v10.27h-2.31v-13.75h2.31v1.53c.72-.6,1.44-1.07,2.16-1.4s1.48-.5,2.3-.5c.94,0,1.73.2,2.38.59s1.14.94,1.46,1.64c.94-.79,1.79-1.36,2.56-1.7s1.6-.52,2.47-.52c1.51,0,2.62.46,3.34,1.37s1.08,2.19,1.08,3.83v8.92Z"/>
          <path class="cls-1" d="m54.55,19.66h-10.13c0,.85.13,1.58.38,2.21s.6,1.14,1.05,1.54c.43.39.93.69,1.52.89s1.23.3,1.94.3c.94,0,1.88-.19,2.83-.56s1.62-.74,2.02-1.1h.12v2.52c-.78.33-1.58.6-2.39.82s-1.67.33-2.56.33c-2.28,0-4.06-.62-5.34-1.85s-1.92-2.99-1.92-5.26.61-4.03,1.84-5.35,2.84-1.98,4.84-1.98c1.85,0,3.28.54,4.29,1.62s1.51,2.62,1.51,4.62v1.26Zm-2.25-1.77c0-1.21-.31-2.15-.92-2.82s-1.52-1-2.75-1-2.23.37-2.96,1.1-1.15,1.64-1.25,2.72h7.88Z"/>
        </g>
        <g>
          <path class="cls-1" d="m38.58,50.06h-2.31v-7.83c0-.59-.03-1.16-.08-1.71s-.17-.99-.34-1.32c-.19-.35-.46-.62-.81-.8s-.86-.27-1.53-.27-1.3.16-1.94.49-1.3.74-1.94,1.24c.02.19.05.41.06.66s.02.5.02.74v8.8h-2.31v-7.83c0-.61-.03-1.18-.08-1.73s-.17-.98-.34-1.31c-.19-.35-.46-.62-.81-.79s-.86-.26-1.53-.26-1.27.16-1.9.47-1.27.71-1.9,1.19v10.27h-2.31v-13.75h2.31v1.53c.72-.6,1.44-1.07,2.16-1.4s1.48-.5,2.3-.5c.94,0,1.73.2,2.38.59s1.14.94,1.46,1.64c.94-.79,1.79-1.36,2.56-1.7s1.6-.52,2.47-.52c1.51,0,2.62.46,3.34,1.37s1.08,2.19,1.08,3.83v8.92Z"/>
          <path class="cls-1" d="m54.2,49.84h-2.3v-1.46c-.21.14-.48.33-.83.58s-.69.45-1.02.6c-.39.19-.83.35-1.33.47s-1.09.19-1.76.19c-1.24,0-2.29-.41-3.15-1.23s-1.29-1.87-1.29-3.14c0-1.04.22-1.89.67-2.53s1.09-1.15,1.91-1.52c.84-.37,1.84-.62,3.02-.75s2.43-.23,3.78-.3v-.36c0-.53-.09-.96-.28-1.3s-.45-.62-.79-.81c-.33-.19-.72-.32-1.18-.38s-.94-.1-1.44-.1c-.61,0-1.28.08-2.03.24s-1.52.39-2.31.7h-.12v-2.35c.45-.12,1.1-.26,1.96-.41s1.69-.22,2.52-.22c.97,0,1.81.08,2.53.24s1.34.43,1.86.82c.52.38.91.87,1.18,1.46s.41,1.34.41,2.23v9.33Zm-2.3-3.39v-3.83c-.71.04-1.54.1-2.49.18s-1.71.2-2.27.36c-.66.19-1.2.48-1.61.88s-.62.95-.62,1.64c0,.79.24,1.38.71,1.78s1.2.6,2.18.6c.81,0,1.56-.16,2.23-.47s1.3-.7,1.87-1.14Z"/>
          <path class="cls-1" d="m66.02,49.92c-.43.11-.91.21-1.42.28s-.97.11-1.37.11c-1.4,0-2.47-.38-3.2-1.13s-1.1-1.97-1.1-3.63v-7.31h-1.56v-1.94h1.56v-3.95h2.31v3.95h4.78v1.94h-4.78v6.27c0,.72.02,1.29.05,1.69s.15.79.34,1.14c.18.33.43.57.74.72s.8.23,1.45.23c.38,0,.77-.06,1.18-.17s.71-.2.89-.28h.12v2.08Z"/>
          <path class="cls-1" d="m80.34,49.01c-.77.37-1.5.66-2.2.86s-1.43.31-2.21.31c-.99,0-1.9-.15-2.73-.44s-1.54-.73-2.13-1.32c-.6-.59-1.06-1.34-1.39-2.24s-.49-1.96-.49-3.16c0-2.25.62-4.01,1.85-5.29s2.87-1.92,4.89-1.92c.79,0,1.56.11,2.32.33s1.45.49,2.09.81v2.57h-.12c-.71-.55-1.43-.97-2.18-1.27s-1.48-.44-2.2-.44c-1.31,0-2.35.44-3.11,1.32s-1.14,2.18-1.14,3.88.37,2.93,1.11,3.82,1.79,1.34,3.13,1.34c.47,0,.94-.06,1.43-.18s.92-.28,1.3-.48c.34-.17.65-.35.95-.55s.53-.36.7-.5h.12v2.55Z"/>
          <path class="cls-1" d="m94.69,50.07h-2.31v-7.83c0-.63-.04-1.22-.11-1.78s-.21-.99-.41-1.3c-.21-.34-.5-.6-.89-.77s-.89-.25-1.5-.25-1.29.16-1.98.47-1.35.71-1.98,1.19v10.27h-2.31v-19.15h2.31v6.93c.72-.6,1.47-1.07,2.24-1.4s1.56-.5,2.38-.5c1.49,0,2.62.45,3.4,1.34s1.17,2.18,1.17,3.87v8.92Z"/>
          <path class="cls-1" d="m110.25,49.84h-2.3v-1.46c-.21.14-.48.33-.83.58s-.69.45-1.02.6c-.39.19-.83.35-1.33.47s-1.09.19-1.76.19c-1.24,0-2.29-.41-3.15-1.23s-1.29-1.87-1.29-3.14c0-1.04.22-1.89.67-2.53s1.09-1.15,1.91-1.52c.84-.37,1.84-.62,3.02-.75s2.43-.23,3.78-.3v-.36c0-.53-.09-.96-.28-1.3s-.45-.62-.79-.81c-.33-.19-.72-.32-1.18-.38s-.94-.1-1.44-.1c-.61,0-1.28.08-2.03.24s-1.52.39-2.31.7h-.12v-2.35c.45-.12,1.1-.26,1.96-.41s1.69-.22,2.52-.22c.97,0,1.81.08,2.53.24s1.34.43,1.86.82c.52.38.91.87,1.18,1.46s.41,1.34.41,2.23v9.33Zm-2.3-3.39v-3.83c-.71.04-1.54.1-2.49.18s-1.71.2-2.27.36c-.66.19-1.2.48-1.61.88s-.62.95-.62,1.64c0,.79.24,1.38.71,1.78s1.2.6,2.18.6c.81,0,1.56-.16,2.23-.47s1.3-.7,1.87-1.14Z"/>
        </g>
      </g>
    </g>
  </g>
</svg>