<?xml version="1.0" encoding="UTF-8"?>
<svg id="Layer_2" data-name="Layer 2" xmlns="http://www.w3.org/2000/svg" viewBox="0 0 64 64">
  <defs>
    <style>
      .cls-1 {
        stroke: #fff;
        stroke-miterlimit: 10;
        stroke-width: .5px;
      }

      .cls-1, .cls-2 {
        fill: #fff;
      }

      .cls-3 {
        fill: #231f20;
      }

      .cls-3, .cls-2 {
        stroke-width: 0px;
      }
    </style>
  </defs>
  <g id="Main_Layer" data-name="Main Layer">
    <g>
      <g>
        <rect class="cls-3" x=".25" y=".25" width="63.5" height="63.5"/>
        <path class="cls-2" d="m63.5.5v63H.5V.5h63m.5-.5H0v64h64V0h0Z"/>
      </g>
      <g>
        <path class="cls-1" d="m17.33,29.48h-1.39v-4.7c0-.35-.02-.7-.05-1.03s-.1-.59-.2-.79c-.11-.21-.28-.37-.49-.48s-.52-.16-.92-.16-.78.1-1.17.29-.78.44-1.17.74c.01.11.03.25.04.4s.01.3.01.45v5.28h-1.39v-4.7c0-.36-.02-.71-.05-1.04s-.1-.59-.2-.79c-.11-.21-.28-.37-.49-.48s-.52-.16-.92-.16-.76.09-1.14.28-.76.43-1.14.72v6.16h-1.39v-8.25h1.39v.92c.43-.36.87-.64,1.3-.84s.89-.3,1.38-.3c.56,0,1.04.12,1.43.35s.68.56.88.98c.56-.47,1.07-.81,1.54-1.02s.96-.31,1.49-.31c.91,0,1.58.27,2.01.82s.65,1.32.65,2.3v5.36Z"/>
        <path class="cls-1" d="m26.91,25.49h-6.08c0,.51.08.95.23,1.33s.36.69.63.93c.26.24.56.41.91.53s.74.18,1.16.18c.56,0,1.13-.11,1.7-.34s.97-.44,1.22-.66h.07v1.51c-.47.2-.95.36-1.43.5s-1,.2-1.54.2c-1.37,0-2.44-.37-3.21-1.11s-1.15-1.79-1.15-3.16.37-2.42,1.1-3.21,1.71-1.19,2.91-1.19c1.11,0,1.97.33,2.57.98s.91,1.57.91,2.77v.75Zm-1.35-1.06c0-.73-.19-1.29-.55-1.69s-.91-.6-1.65-.6-1.34.22-1.78.66-.69.98-.75,1.63h4.73Z"/>
      </g>
      <path class="cls-1" d="m17.33,43.74h-1.39v-4.7c0-.35-.02-.7-.05-1.03s-.1-.59-.2-.79c-.11-.21-.28-.37-.49-.48s-.52-.16-.92-.16-.78.1-1.17.29-.78.44-1.17.74c.01.11.03.25.04.4s.01.3.01.45v5.28h-1.39v-4.7c0-.36-.02-.71-.05-1.04s-.1-.59-.2-.79c-.11-.21-.28-.37-.49-.48s-.52-.16-.92-.16-.76.09-1.14.28-.76.43-1.14.72v6.16h-1.39v-8.25h1.39v.92c.43-.36.87-.64,1.3-.84s.89-.3,1.38-.3c.56,0,1.04.12,1.43.35s.68.56.88.98c.56-.47,1.07-.81,1.54-1.02s.96-.31,1.49-.31c.91,0,1.58.27,2.01.82s.65,1.32.65,2.3v5.36Z"/>
      <path class="cls-1" d="m26.7,43.61h-1.38v-.88c-.12.08-.29.2-.5.35s-.41.27-.61.36c-.23.11-.5.21-.8.28s-.65.11-1.06.11c-.74,0-1.37-.25-1.89-.74s-.78-1.12-.78-1.88c0-.63.13-1.13.4-1.52s.65-.69,1.15-.91c.5-.22,1.11-.37,1.81-.45s1.46-.14,2.27-.18v-.21c0-.32-.06-.58-.17-.78s-.27-.37-.48-.49c-.2-.11-.43-.19-.71-.23s-.56-.06-.86-.06c-.36,0-.77.05-1.22.14s-.91.24-1.39.42h-.07v-1.41c.27-.07.66-.16,1.17-.24s1.02-.13,1.51-.13c.58,0,1.09.05,1.52.14s.8.26,1.12.49c.31.23.55.52.71.88s.24.81.24,1.34v5.6Zm-1.38-2.03v-2.3c-.42.02-.92.06-1.5.11s-1.03.12-1.36.21c-.4.11-.72.29-.97.53s-.37.57-.37.99c0,.47.14.83.43,1.07s.72.36,1.31.36c.49,0,.93-.09,1.34-.28s.78-.42,1.12-.68Z"/>
      <path class="cls-1" d="m33.8,43.66c-.26.07-.55.13-.85.17s-.58.07-.82.07c-.84,0-1.48-.23-1.92-.68s-.66-1.18-.66-2.18v-4.39h-.94v-1.17h.94v-2.37h1.39v2.37h2.87v1.17h-2.87v3.76c0,.43,0,.77.03,1.02s.09.47.21.68c.11.2.26.34.45.43s.48.14.87.14c.23,0,.46-.03.71-.1s.42-.12.53-.17h.07v1.25Z"/>
      <path class="cls-1" d="m42.4,43.11c-.46.22-.9.39-1.32.52s-.86.18-1.33.18c-.6,0-1.14-.09-1.64-.26s-.92-.44-1.28-.79c-.36-.35-.64-.8-.83-1.34s-.3-1.17-.3-1.9c0-1.35.37-2.41,1.11-3.18s1.72-1.15,2.94-1.15c.47,0,.94.07,1.39.2s.87.3,1.25.49v1.54h-.07c-.42-.33-.86-.58-1.31-.76s-.89-.27-1.32-.27c-.79,0-1.41.26-1.87.79s-.68,1.31-.68,2.33.22,1.76.67,2.29,1.07.8,1.88.8c.28,0,.57-.04.86-.11s.55-.17.78-.29c.2-.1.39-.21.57-.33s.32-.22.42-.3h.07v1.53Z"/>
      <path class="cls-1" d="m51.01,43.75h-1.39v-4.7c0-.38-.02-.74-.07-1.07s-.13-.59-.24-.78c-.12-.21-.3-.36-.53-.46s-.53-.15-.9-.15-.78.09-1.19.28-.81.43-1.19.72v6.16h-1.39v-11.5h1.39v4.16c.43-.36.88-.64,1.34-.84s.94-.3,1.43-.3c.89,0,1.57.27,2.04.81s.7,1.31.7,2.32v5.36Z"/>
      <path class="cls-1" d="m60.35,43.61h-1.38v-.88c-.12.08-.29.2-.5.35s-.41.27-.61.36c-.23.11-.5.21-.8.28s-.65.11-1.06.11c-.74,0-1.37-.25-1.89-.74s-.78-1.12-.78-1.88c0-.63.13-1.13.4-1.52s.65-.69,1.15-.91c.5-.22,1.11-.37,1.81-.45s1.46-.14,2.27-.18v-.21c0-.32-.06-.58-.17-.78s-.27-.37-.48-.49c-.2-.11-.43-.19-.71-.23s-.56-.06-.86-.06c-.36,0-.77.05-1.22.14s-.91.24-1.39.42h-.07v-1.41c.27-.07.66-.16,1.17-.24s1.02-.13,1.51-.13c.58,0,1.09.05,1.52.14s.8.26,1.12.49c.31.23.55.52.71.88s.24.81.24,1.34v5.6Zm-1.38-2.03v-2.3c-.42.02-.92.06-1.5.11s-1.03.12-1.36.21c-.4.11-.72.29-.97.53s-.37.57-.37.99c0,.47.14.83.43,1.07s.72.36,1.31.36c.49,0,.93-.09,1.34-.28s.78-.42,1.12-.68Z"/>
    </g>
  </g>
</svg>