<?xml version="1.0" encoding="UTF-8"?>
<svg id="Layer_2" data-name="Layer 2" xmlns="http://www.w3.org/2000/svg" viewBox="0 0 115.75 64">
  <defs>
    <style>
      .cls-1 {
        stroke: #fff;
        stroke-width: .5px;
      }

      .cls-1, .cls-2 {
        stroke-miterlimit: 10;
      }

      .cls-1, .cls-3 {
        fill: #fff;
      }

      .cls-2 {
        stroke: #231f20;
      }

      .cls-2, .cls-4 {
        fill: #231f20;
      }

      .cls-4, .cls-3 {
        stroke-width: 0px;
      }
    </style>
  </defs>
  <g id="Main_Layer" data-name="Main Layer">
    <g>
      <g id="Verdana_Logo" data-name="Verdana Logo">
        <g>
          <rect class="cls-3" x="64.25" y=".25" width="51.25" height="63.5"/>
          <path class="cls-3" d="m115.25.5v63h-50.75V.5h50.75M115.75,0h-51.75v64h51.75V0h0Z"/>
        </g>
      </g>
      <g id="Verdana_Logo-2" data-name="Verdana Logo">
        <rect class="cls-4" width="64" height="64"/>
      </g>
      <path class="cls-1" d="m29.31,51.13h-2.43v-8.21c0-.62-.03-1.22-.08-1.79s-.17-1.04-.35-1.38c-.2-.37-.48-.65-.85-.84s-.9-.28-1.6-.28-1.36.17-2.04.51-1.36.77-2.04,1.3c.03.2.05.43.06.69s.03.52.03.78v9.23h-2.43v-8.21c0-.64-.03-1.24-.08-1.81s-.17-1.03-.35-1.37c-.2-.37-.48-.65-.85-.83s-.9-.28-1.6-.28-1.33.16-1.99.49-1.33.74-1.99,1.25v10.76h-2.43v-14.42h2.43v1.6c.76-.63,1.51-1.12,2.27-1.47s1.56-.53,2.41-.53c.98,0,1.81.21,2.5.62s1.19.99,1.53,1.72c.98-.83,1.88-1.42,2.68-1.79s1.67-.55,2.59-.55c1.58,0,2.75.48,3.5,1.44s1.13,2.3,1.13,4.02v9.36Z"/>
      <path class="cls-1" d="m45.63,51.13h-2.41v-1.54c-.22.15-.51.35-.87.61s-.72.47-1.06.63c-.4.2-.87.36-1.39.5s-1.14.2-1.85.2c-1.3,0-2.4-.43-3.3-1.29s-1.36-1.96-1.36-3.29c0-1.09.23-1.98.7-2.65s1.14-1.21,2.01-1.59c.88-.39,1.93-.65,3.16-.79s2.55-.24,3.96-.31v-.37c0-.55-.1-1.01-.29-1.37s-.47-.65-.83-.85c-.34-.2-.76-.33-1.24-.4s-.99-.1-1.51-.1c-.64,0-1.35.08-2.13.25s-1.59.41-2.43.73h-.13v-2.47c.47-.13,1.16-.27,2.05-.43s1.78-.23,2.65-.23c1.02,0,1.9.08,2.65.25s1.4.45,1.96.86c.54.4.96.91,1.24,1.54s.43,1.41.43,2.34v9.78Zm-2.41-3.55v-4.01c-.74.04-1.61.11-2.61.19s-1.8.21-2.38.37c-.7.2-1.26.51-1.69.92s-.65.99-.65,1.72c0,.83.25,1.45.75,1.86s1.26.63,2.28.63c.85,0,1.63-.17,2.34-.5s1.36-.73,1.96-1.19Z"/>
      <path class="cls-1" d="m58.58,51.44c-.46.12-.95.22-1.49.3s-1.02.12-1.44.12c-1.47,0-2.59-.4-3.36-1.19s-1.15-2.06-1.15-3.81v-7.67h-1.64v-2.04h1.64v-4.14h2.43v4.14h5.01v2.04h-5.01v6.57c0,.76.02,1.35.05,1.77s.15.82.36,1.19c.19.34.45.6.78.76s.84.24,1.52.24c.4,0,.81-.06,1.24-.17s.74-.21.93-.29h.13v2.18Z"/>
      <g>
        <path class="cls-2" d="m79.17,51.37c-.81.39-1.58.69-2.3.9s-1.5.32-2.32.32c-1.04,0-2-.15-2.87-.46s-1.61-.77-2.23-1.39c-.63-.62-1.11-1.4-1.46-2.35s-.52-2.05-.52-3.32c0-2.36.65-4.21,1.94-5.55s3.01-2.01,5.13-2.01c.83,0,1.64.12,2.43.35s1.53.52,2.19.85v2.7h-.13c-.74-.58-1.5-1.02-2.29-1.33s-1.56-.46-2.3-.46c-1.38,0-2.46.46-3.26,1.39s-1.19,2.28-1.19,4.07.39,3.07,1.17,4.01,1.87,1.4,3.28,1.4c.49,0,.99-.06,1.5-.19s.96-.3,1.37-.5c.35-.18.68-.37.99-.57s.55-.38.74-.52h.13v2.67Z"/>
        <path class="cls-2" d="m94.34,52.27h-2.43v-8.21c0-.66-.04-1.28-.12-1.86s-.22-1.03-.43-1.36c-.22-.36-.52-.63-.93-.81s-.93-.26-1.57-.26-1.36.16-2.08.49-1.42.74-2.08,1.25v10.76h-2.43v-20.08h2.43v7.27c.76-.63,1.54-1.12,2.35-1.47s1.64-.53,2.49-.53c1.56,0,2.74.47,3.56,1.41s1.23,2.29,1.23,4.05v9.36Z"/>
        <path class="cls-2" d="m110.21,52.27h-2.41v-1.54c-.22.15-.51.35-.87.61s-.72.47-1.06.63c-.4.2-.87.36-1.39.5s-1.14.2-1.85.2c-1.3,0-2.4-.43-3.3-1.29s-1.36-1.96-1.36-3.29c0-1.09.23-1.98.7-2.65s1.14-1.21,2.01-1.59c.88-.39,1.93-.65,3.16-.79s2.55-.24,3.96-.31v-.37c0-.55-.1-1.01-.29-1.37s-.47-.65-.83-.85c-.34-.2-.76-.33-1.24-.4s-.99-.1-1.51-.1c-.64,0-1.35.08-2.13.25s-1.59.41-2.43.73h-.13v-2.47c.47-.13,1.16-.27,2.05-.43s1.78-.23,2.65-.23c1.02,0,1.9.08,2.65.25s1.4.45,1.96.86c.54.4.96.91,1.24,1.54s.43,1.41.43,2.34v9.78Zm-2.41-3.55v-4.01c-.74.04-1.61.11-2.61.19s-1.8.21-2.38.37c-.7.2-1.26.51-1.69.92s-.65.99-.65,1.72c0,.83.25,1.45.75,1.86s1.26.63,2.28.63c.85,0,1.63-.17,2.34-.5s1.36-.73,1.96-1.19Z"/>
      </g>
      <g>
        <path class="cls-1" d="m29.31,27.17h-2.43v-8.21c0-.62-.03-1.22-.08-1.79s-.17-1.04-.35-1.38c-.2-.37-.48-.65-.85-.84s-.9-.28-1.6-.28-1.36.17-2.04.51-1.36.77-2.04,1.3c.03.2.05.43.06.69s.03.52.03.78v9.23h-2.43v-8.21c0-.64-.03-1.24-.08-1.81s-.17-1.03-.35-1.37c-.2-.37-.48-.65-.85-.83s-.9-.28-1.6-.28-1.33.16-1.99.49-1.33.74-1.99,1.25v10.76h-2.43v-14.42h2.43v1.6c.76-.63,1.51-1.12,2.27-1.47s1.56-.53,2.41-.53c.98,0,1.81.21,2.5.62s1.19.99,1.53,1.72c.98-.83,1.88-1.42,2.68-1.79s1.67-.55,2.59-.55c1.58,0,2.75.48,3.5,1.44s1.13,2.3,1.13,4.02v9.36Z"/>
        <path class="cls-1" d="m46.05,20.22h-10.62c0,.89.13,1.66.4,2.32s.63,1.2,1.1,1.62c.45.41.98.72,1.59.93s1.29.31,2.03.31c.98,0,1.97-.2,2.96-.59s1.7-.78,2.12-1.16h.13v2.65c-.82.34-1.65.63-2.5.86s-1.75.35-2.68.35c-2.39,0-4.26-.65-5.6-1.94s-2.01-3.13-2.01-5.52.64-4.23,1.93-5.61,2.98-2.08,5.08-2.08c1.94,0,3.44.57,4.5,1.7s1.58,2.75,1.58,4.84v1.32Zm-2.36-1.86c0-1.27-.33-2.26-.96-2.96s-1.59-1.05-2.88-1.05-2.33.38-3.1,1.15-1.21,1.72-1.31,2.85h8.26Z"/>
      </g>
    </g>
  </g>
</svg>