<?xml version="1.0" encoding="UTF-8"?>
<svg id="Layer_2" data-name="Layer 2" xmlns="http://www.w3.org/2000/svg" viewBox="0 0 64 64">
  <defs>
    <style>
      .cls-1 {
        fill: #231f20;
      }

      .cls-1, .cls-2 {
        stroke-width: 0px;
      }

      .cls-2 {
        fill: #fff;
      }
    </style>
  </defs>
  <g id="Main_Layer" data-name="Main Layer">
    <g id="Verdana_Logo" data-name="Verdana Logo">
      <g>
        <rect class="cls-1" x=".25" y=".25" width="63.5" height="63.5"/>
        <path class="cls-2" d="m63.5.5v63H.5V.5h63m.5-.5H0v64h64V0h0Z"/>
      </g>
    </g>
    <g>
      <g>
        <path class="cls-2" d="m21.35,30.2h-1.1v-3.73c0-.28-.01-.55-.04-.81s-.08-.47-.16-.63c-.09-.17-.22-.29-.39-.38s-.41-.13-.73-.13-.62.08-.93.23-.62.35-.93.59c.01.09.02.19.03.31s.01.24.01.35v4.19h-1.1v-3.73c0-.29-.01-.56-.04-.82s-.08-.47-.16-.62c-.09-.17-.22-.29-.39-.38s-.41-.13-.73-.13-.6.07-.91.22-.6.34-.91.57v4.89h-1.1v-6.54h1.1v.73c.34-.29.69-.51,1.03-.67s.71-.24,1.09-.24c.45,0,.82.09,1.13.28s.54.45.69.78c.45-.38.85-.65,1.22-.81s.76-.25,1.18-.25c.72,0,1.25.22,1.59.65s.51,1.04.51,1.83v4.25Z"/>
        <path class="cls-2" d="m28.95,27.04h-4.82c0,.4.06.75.18,1.05s.29.54.5.74c.2.19.44.33.72.42s.59.14.92.14c.45,0,.89-.09,1.34-.27s.77-.35.96-.52h.06v1.2c-.37.16-.75.29-1.14.39s-.79.16-1.22.16c-1.09,0-1.93-.29-2.54-.88s-.91-1.42-.91-2.5.29-1.92.88-2.55,1.35-.94,2.31-.94c.88,0,1.56.26,2.04.77s.72,1.25.72,2.2v.6Zm-1.07-.84c0-.58-.15-1.03-.44-1.34s-.72-.47-1.31-.47-1.06.17-1.41.52-.55.78-.59,1.29h3.75Z"/>
      </g>
      <g>
        <path class="cls-2" d="m21.33,38.6h-1.1v-3.73c0-.28-.01-.55-.04-.81s-.08-.47-.16-.63c-.09-.17-.22-.29-.39-.38s-.41-.13-.73-.13-.62.08-.93.23-.62.35-.93.59c.01.09.02.19.03.31s.01.24.01.35v4.19h-1.1v-3.73c0-.29-.01-.56-.04-.82s-.08-.47-.16-.62c-.09-.17-.22-.29-.39-.38s-.41-.13-.73-.13-.6.07-.91.22-.6.34-.91.57v4.89h-1.1v-6.54h1.1v.73c.34-.29.69-.51,1.03-.67s.71-.24,1.09-.24c.45,0,.82.09,1.13.28s.54.45.69.78c.45-.38.85-.65,1.22-.81s.76-.25,1.18-.25c.72,0,1.25.22,1.59.65s.51,1.04.51,1.83v4.25Z"/>
        <path class="cls-2" d="m28.54,38.6h-1.1v-.7c-.1.07-.23.16-.4.28s-.33.21-.48.28c-.18.09-.39.17-.63.23s-.52.09-.84.09c-.59,0-1.09-.2-1.5-.59s-.62-.89-.62-1.49c0-.5.11-.9.32-1.2s.52-.55.91-.72c.4-.18.88-.29,1.44-.36s1.16-.11,1.8-.14v-.17c0-.25-.04-.46-.13-.62s-.21-.29-.38-.39c-.16-.09-.34-.15-.56-.18s-.45-.05-.69-.05c-.29,0-.61.04-.97.11s-.72.19-1.1.33h-.06v-1.12c.21-.06.53-.12.93-.19s.81-.11,1.2-.11c.46,0,.86.04,1.2.11s.64.21.89.39c.25.18.43.41.56.7s.19.64.19,1.06v4.44Zm-1.1-1.61v-1.82c-.34.02-.73.05-1.19.09s-.82.1-1.08.17c-.32.09-.57.23-.77.42s-.29.45-.29.78c0,.38.11.66.34.85s.57.28,1.04.28c.39,0,.74-.08,1.06-.23s.62-.33.89-.54Z"/>
        <path class="cls-2" d="m34.06,38.54c-.21.05-.43.1-.68.13s-.46.05-.65.05c-.67,0-1.18-.18-1.52-.54s-.52-.94-.52-1.73v-3.48h-.74v-.93h.74v-1.88h1.1v1.88h2.27v.93h-2.27v2.98c0,.34,0,.61.02.81s.07.37.16.54c.09.16.2.27.35.34s.38.11.69.11c.18,0,.37-.03.56-.08s.34-.1.42-.13h.06v.99Z"/>
        <path class="cls-2" d="m40.23,38.19c-.37.18-.72.31-1.05.41s-.68.15-1.05.15c-.47,0-.91-.07-1.3-.21s-.73-.35-1.01-.63c-.29-.28-.51-.64-.66-1.07s-.23-.93-.23-1.51c0-1.07.29-1.91.88-2.52s1.36-.91,2.33-.91c.38,0,.74.05,1.1.16s.69.23.99.39v1.22h-.06c-.34-.26-.68-.46-1.04-.6s-.71-.21-1.05-.21c-.62,0-1.12.21-1.48.63s-.54,1.04-.54,1.85.18,1.4.53,1.82.85.64,1.49.64c.22,0,.45-.03.68-.09s.44-.13.62-.23c.16-.08.31-.17.45-.26s.25-.17.33-.24h.06v1.21Z"/>
        <path class="cls-2" d="m47.11,38.6h-1.1v-3.73c0-.3-.02-.58-.05-.85s-.1-.47-.19-.62c-.1-.16-.24-.29-.42-.37s-.42-.12-.71-.12-.62.07-.94.22-.64.34-.94.57v4.89h-1.1v-9.12h1.1v3.3c.34-.29.7-.51,1.07-.67s.74-.24,1.13-.24c.71,0,1.25.21,1.62.64s.56,1.04.56,1.84v4.25Z"/>
        <path class="cls-2" d="m54.32,38.6h-1.1v-.7c-.1.07-.23.16-.4.28s-.33.21-.48.28c-.18.09-.39.17-.63.23s-.52.09-.84.09c-.59,0-1.09-.2-1.5-.59s-.62-.89-.62-1.49c0-.5.11-.9.32-1.2s.52-.55.91-.72c.4-.18.88-.29,1.44-.36s1.16-.11,1.8-.14v-.17c0-.25-.04-.46-.13-.62s-.21-.29-.38-.39c-.16-.09-.34-.15-.56-.18s-.45-.05-.69-.05c-.29,0-.61.04-.97.11s-.72.19-1.1.33h-.06v-1.12c.21-.06.53-.12.93-.19s.81-.11,1.2-.11c.46,0,.86.04,1.2.11s.64.21.89.39c.25.18.43.41.56.7s.19.64.19,1.06v4.44Zm-1.1-1.61v-1.82c-.34.02-.73.05-1.19.09s-.82.1-1.08.17c-.32.09-.57.23-.77.42s-.29.45-.29.78c0,.38.11.66.34.85s.57.28,1.04.28c.39,0,.74-.08,1.06-.23s.62-.33.89-.54Z"/>
      </g>
    </g>
  </g>
</svg>