<?xml version="1.0" encoding="UTF-8"?>
<svg id="Layer_2" data-name="Layer 2" xmlns="http://www.w3.org/2000/svg" viewBox="0 0 16 16">
  <defs>
    <style>
      .cls-1 {
        stroke: #231f20;
        stroke-miterlimit: 10;
        stroke-width: .25px;
      }

      .cls-1, .cls-2 {
        fill: #231f20;
      }

      .cls-2 {
        stroke-width: 0px;
      }
    </style>
  </defs>
  <g id="Layer_1-2" data-name="Layer 1">
    <path class="cls-2" d="m15.75.25v15.5H.25V.25h15.5m.25-.25H0v16h16V0h0Z"/>
    <g>
      <g>
        <path class="cls-1" d="m3.11,8.44h1.43c.49,0,.86.17,1.13.52.24.32.36.72.36,1.21,0,.38-.07.73-.21,1.03-.25.54-.68.82-1.28.82h-1.43v-3.59Zm1.34,3.17c.16,0,.29-.02.4-.05.18-.06.34-.19.45-.37.09-.14.16-.33.2-.56.02-.14.04-.26.04-.38,0-.44-.09-.79-.26-1.04-.17-.25-.45-.37-.83-.37h-.84v2.75h.85Z"/>
        <path class="cls-1" d="m6.74,8.44h2.6v.44h-2.13v1.09h1.97v.42h-1.97v1.22h2.17v.43h-2.64v-3.59Z"/>
        <path class="cls-1" d="m10.32,8.44l1.03,3.05,1.02-3.05h.54l-1.31,3.59h-.52l-1.31-3.59h.54Z"/>
      </g>
      <path class="cls-1" d="m3.09,3.97h.7l1.03,3.03,1.02-3.03h.69v3.59h-.46v-2.12c0-.07,0-.19,0-.36s0-.35,0-.54l-1.02,3.02h-.48l-1.03-3.02v.11c0,.09,0,.22,0,.4s0,.31,0,.4v2.12h-.46v-3.59Z"/>
    </g>
  </g>
</svg>