<?xml version="1.0" encoding="UTF-8"?>
<svg id="Layer_2" data-name="Layer 2" xmlns="http://www.w3.org/2000/svg" viewBox="0 0 67 67">
  <defs>
    <style>
      .cls-1 {
        fill: none;
        stroke: #fff;
        stroke-miterlimit: 10;
        stroke-width: 3px;
      }

      .cls-2 {
        fill: #fff;
        stroke-width: 0px;
      }
    </style>
  </defs>
  <g id="Layer_1-2" data-name="Layer 1">
    <rect class="cls-1" x="1.5" y="1.5" width="64" height="64"/>
    <g>
      <g>
        <path class="cls-2" d="m13.93,35.27h5.73c1.95,0,3.46.7,4.53,2.1.96,1.26,1.44,2.88,1.44,4.85,0,1.52-.28,2.9-.85,4.13-1,2.17-2.71,3.26-5.14,3.26h-5.71v-14.35Zm5.35,12.69c.64,0,1.17-.07,1.59-.21.74-.25,1.34-.74,1.81-1.46.38-.58.65-1.32.81-2.23.1-.54.14-1.04.14-1.5,0-1.78-.35-3.16-1.04-4.14-.69-.98-1.8-1.47-3.34-1.47h-3.37v11.02h3.39Z"/>
        <path class="cls-2" d="m28.47,35.27h10.41v1.76h-8.52v4.36h7.87v1.66h-7.87v4.86h8.66v1.71h-10.56v-14.35Z"/>
        <path class="cls-2" d="m42.76,35.27l4.12,12.22,4.07-12.22h2.18l-5.23,14.35h-2.06l-5.22-14.35h2.15Z"/>
      </g>
      <path class="cls-2" d="m13.87,17.38h2.78l4.12,12.13,4.1-12.13h2.76v14.35h-1.86v-8.47c0-.29,0-.78.02-1.46s.02-1.4.02-2.18l-4.1,12.1h-1.93l-4.13-12.1v.44c0,.35,0,.89.03,1.61s.03,1.25.03,1.59v8.47h-1.86v-14.35Z"/>
    </g>
  </g>
</svg>